<svg width="230" height="46" viewBox="0 0 230 46" fill="none" xmlns="http://www.w3.org/2000/svg">
<path d="M23.2406 28.2767L21.516 29.1031L21.3928 22.0783C21.3928 22.0783 22.0327 20.243 22.6656 19.1858C22.8481 18.8808 23.086 18.5352 23.332 18.1977C24.1361 17.0947 25.1273 16.1493 26.1574 15.2566C26.2724 15.157 26.3829 15.0605 26.4843 14.9709C27.2007 14.3377 28.291 13.318 28.291 13.318C28.291 13.318 26.8812 13.9081 26.0326 14.3924C25.8451 14.4994 25.6363 14.6296 25.4247 14.7677C24.3851 15.4461 23.4305 16.2612 22.6617 17.2392C22.605 17.3114 22.551 17.3822 22.5014 17.4502C22.01 18.1231 21.3107 19.4337 21.3107 19.4337C21.3107 19.4337 21.3041 18.1506 21.3928 17.3676C21.4307 17.033 21.5037 16.6222 21.5749 16.2614C21.6902 15.6766 21.8942 15.1133 22.1944 14.5993C22.4955 14.0835 22.9149 13.4256 23.3227 12.9874C24.0827 12.1707 25.7863 11.1692 25.7863 11.1692C25.7863 11.1692 27.3877 10.3428 29.3997 10.0948C31.4117 9.84692 33.0131 9.97088 33.0131 9.97088C33.0131 9.97088 32.9282 12.3898 32.4793 13.7312C32.3098 14.2374 32.0227 14.8147 31.7308 15.3373C31.1294 16.414 30.3205 17.3614 29.3437 18.1093C28.8067 18.5204 28.1904 18.9389 27.6341 19.1858C26.2576 19.7965 23.8154 19.9709 23.8154 19.9709C23.8154 19.9709 22.871 21.7477 22.83 24.1858C22.7889 26.6238 23.2406 28.2767 23.2406 28.2767Z" fill="#6AAB41"/>
<path d="M19.7092 28.3077L21.557 29.2271L21.4338 21.9957C21.4338 21.9957 20.6295 20.4909 19.9967 19.4337C19.3638 18.3765 17.6562 17.0783 17.6562 17.0783C17.6562 17.0783 16.8124 16.5029 16.0959 15.8696C15.3794 15.2364 14.4124 14.599 14.4124 14.599C14.4124 14.599 15.1104 14.599 16.6707 15.3428C18.231 16.0866 18.8059 16.6651 18.8059 16.6651C18.8059 16.6651 19.6285 17.3559 20.1198 18.0287C20.6111 18.7016 21.1874 19.4337 21.1874 19.4337C21.1874 19.4337 21.0232 17.9461 20.7357 17.0783C20.5238 16.4384 19.7536 15.1918 19.3638 14.5812C19.2123 14.344 19.0401 14.1224 18.8339 13.9315C18.4351 13.5625 17.6642 12.9224 16.6707 12.4502C15.1212 11.8629 13.9366 11.5138 13.1314 11.3105C12.2972 11.0999 11.4346 11.0823 10.5777 11.1557L9.93673 11.2106C9.93673 11.2106 10.0216 12.4208 10.4705 13.7622C10.721 14.5106 11.2288 15.4144 11.6289 16.0672C11.9912 16.6585 12.4577 17.1755 12.9974 17.6085C13.674 18.1513 14.6377 18.8817 15.3157 19.2167C16.4654 19.7849 19.1344 20.0019 19.1344 20.0019C19.1344 20.0019 20.0788 21.7787 20.1198 24.2168C20.1609 26.6548 19.7092 28.3077 19.7092 28.3077Z" fill="#31704D"/>
<path d="M18.1078 31.7064L13.0984 35.9213C13.0984 35.9213 10.5673 33.908 9.27976 32.2849C7.99218 30.6618 6.52868 27.6155 6.52868 27.6155C6.52868 27.6155 10.2199 28.4269 12.4825 29.2271C14.7452 30.0272 18.1078 31.7064 18.1078 31.7064Z" fill="#6AAB41"/>
<path d="M19.7913 30.5494L21.598 31.2519C21.598 31.2519 19.1286 32.8245 17.7383 33.8965C16.348 34.9685 14.2892 36.8717 14.2892 36.8717L13.0574 35.9626C13.0574 35.9626 14.9344 34.1057 16.219 33.0701C17.5037 32.0344 19.7913 30.5494 19.7913 30.5494Z" fill="#31704D"/>
<path d="M26.6896 35.0535C30.1797 33.3593 33.0951 32.5742 33.0951 32.5742C33.0951 32.5742 33.8752 31.913 34.9839 30.1775C36.0925 28.442 36.3389 27.6155 36.3389 27.6155C36.3389 27.6155 31.2063 28.5246 25.1703 31.4172C19.1344 34.3097 16.0548 37.9874 16.0548 37.9874L17.9436 39.1444L19.9145 40.2188C19.9145 40.2188 23.1994 36.7477 26.6896 35.0535Z" fill="#6DAB43"/>
<path d="M21.4338 41.0039L19.9556 40.1775C19.9556 40.1775 21.4338 38.1114 25.8683 35.4254C30.3029 32.7395 33.2182 32.5742 33.2182 32.5742C33.2182 32.5742 30.8778 35.3841 27.5518 37.5329C24.2259 39.6816 21.4338 41.0039 21.4338 41.0039Z" fill="#4B924E"/>
<path d="M33.9573 37.4502C28.5254 42.4915 21.4338 45.0122 21.4338 45.0122V40.9213C21.4338 40.9213 27.4287 38.0287 29.9334 35.756C34.3269 32.1196 36.3389 27.6155 36.3389 27.6155L40.8145 26.8717C40.8145 26.8717 39.3892 32.4089 33.9573 37.4502Z" fill="#31704E"/>
<path d="M8.91021 37.4502C14.3421 42.4915 21.4338 45.0122 21.4338 45.0122V40.9213C21.4338 40.9213 15.4389 38.0287 12.9342 35.756C8.54066 32.1196 6.52868 27.6155 6.52868 27.6155L2.05304 26.8717C2.05304 26.8717 3.4783 32.4089 8.91021 37.4502Z" fill="#31704E"/>
<path d="M21.2645 29.1632L21.1874 31.2979C21.1851 31.3603 21.2469 31.4042 21.3027 31.377C21.4445 31.3078 21.7063 31.1809 22.0606 31.0122C23.8242 30.1727 27.8799 28.3006 30.8317 27.3863C34.7056 26.1864 41.0148 25.3202 41.0148 25.3202C41.0148 25.3202 42.2466 21.4359 42.5751 16.312C42.9279 12.747 42.7393 6.31195 42.7393 6.31195C42.7393 6.31195 37.9763 3.95658 32.6384 2.55162C28.604 1.3553 21.2645 0.0722835 21.2645 0.0722835V3.29542C21.2645 3.29542 27.1742 4.23087 30.7496 5.23757C34.325 6.24428 39.7008 8.46071 39.7008 8.46071C39.7008 8.46071 39.7715 13.4552 39.3724 16.312C38.9733 19.1687 37.771 23.4194 37.771 23.4194C37.771 23.4194 32.5345 24.561 29.3535 25.6508C26.1725 26.7406 21.2645 29.1632 21.2645 29.1632Z" fill="#31704E"/>
<path d="M21.5252 29.1031L21.5551 31.2407C21.5559 31.3025 21.4947 31.345 21.4395 31.3178C20.6052 30.9073 15.5055 28.4251 11.958 27.3263C8.0841 26.1263 1.7749 25.2601 1.7749 25.2601C1.7749 25.2601 0.543078 21.3758 0.214591 16.2519C-0.13825 12.6869 0.050348 6.25188 0.050348 6.25188C0.050348 6.25188 4.81341 3.8965 10.1513 2.49155C14.1858 1.29522 21.5252 0.012207 21.5252 0.012207V3.23535C21.5252 3.23535 15.6155 4.17079 12.0401 5.1775C8.46472 6.1842 3.08885 8.40064 3.08885 8.40064C3.08885 8.40064 3.01824 13.3952 3.41734 16.2519C3.81644 19.1086 5.01871 23.3593 5.01871 23.3593C5.01871 23.3593 10.2552 24.5009 13.4362 25.5907C16.6172 26.6805 21.5252 29.1031 21.5252 29.1031Z" fill="#31704E"/>
<path d="M21 29.0122H22V31.0122L21 31.5122V29.0122Z" fill="#31704E"/>
<path d="M19.5 0.512207L21.5 0.012207L23.5 0.512207L22 2.51221L22.5 3.51221C22.5 3.51221 23.5 3.01221 21.5 3.26221C19.5 3.51221 20.5 3.01221 20.5 3.01221L19.5 0.512207Z" fill="#31704E"/>
<path d="M55.2796 33.0122V12.0122H71.1496V15.9122H60.1396V33.0122H55.2796ZM59.7796 25.3622V21.4622H69.8596V25.3622H59.7796ZM74.1097 33.0122V16.8722H78.7897V33.0122H74.1097ZM76.4497 14.6222C75.5897 14.6222 74.8897 14.3722 74.3497 13.8722C73.8097 13.3722 73.5397 12.7522 73.5397 12.0122C73.5397 11.2722 73.8097 10.6522 74.3497 10.1522C74.8897 9.65221 75.5897 9.40221 76.4497 9.40221C77.3097 9.40221 78.0097 9.64221 78.5497 10.1222C79.0897 10.5822 79.3597 11.1822 79.3597 11.9222C79.3597 12.7022 79.0897 13.3522 78.5497 13.8722C78.0297 14.3722 77.3297 14.6222 76.4497 14.6222ZM89.7331 33.2522C87.8331 33.2522 86.3531 32.7722 85.2931 31.8122C84.2331 30.8322 83.7031 29.3822 83.7031 27.4622V13.3022H88.3831V27.4022C88.3831 28.0822 88.5631 28.6122 88.9231 28.9922C89.2831 29.3522 89.7731 29.5322 90.3931 29.5322C91.1331 29.5322 91.7631 29.3322 92.2831 28.9322L93.5431 32.2322C93.0631 32.5722 92.4831 32.8322 91.8031 33.0122C91.1431 33.1722 90.4531 33.2522 89.7331 33.2522ZM81.2131 20.4722V16.8722H92.4031V20.4722H81.2131ZM103.352 33.2522C101.632 33.2522 100.102 32.8922 98.7622 32.1722C97.4422 31.4522 96.3922 30.4722 95.6122 29.2322C94.8522 27.9722 94.4722 26.5422 94.4722 24.9422C94.4722 23.3222 94.8522 21.8922 95.6122 20.6522C96.3922 19.3922 97.4422 18.4122 98.7622 17.7122C100.102 16.9922 101.632 16.6322 103.352 16.6322C105.052 16.6322 106.572 16.9922 107.912 17.7122C109.252 18.4122 110.302 19.3822 111.062 20.6222C111.822 21.8622 112.202 23.3022 112.202 24.9422C112.202 26.5422 111.822 27.9722 111.062 29.2322C110.302 30.4722 109.252 31.4522 107.912 32.1722C106.572 32.8922 105.052 33.2522 103.352 33.2522ZM103.352 29.4122C104.132 29.4122 104.832 29.2322 105.452 28.8722C106.072 28.5122 106.562 28.0022 106.922 27.3422C107.282 26.6622 107.462 25.8622 107.462 24.9422C107.462 24.0022 107.282 23.2022 106.922 22.5422C106.562 21.8822 106.072 21.3722 105.452 21.0122C104.832 20.6522 104.132 20.4722 103.352 20.4722C102.572 20.4722 101.872 20.6522 101.252 21.0122C100.632 21.3722 100.132 21.8822 99.7522 22.5422C99.3922 23.2022 99.2122 24.0022 99.2122 24.9422C99.2122 25.8622 99.3922 26.6622 99.7522 27.3422C100.132 28.0022 100.632 28.5122 101.252 28.8722C101.872 29.2322 102.572 29.4122 103.352 29.4122Z" fill="#313440"/>
<path d="M115.66 33.0122V12.0122H124.75C126.63 12.0122 128.25 12.3222 129.61 12.9422C130.97 13.5422 132.02 14.4122 132.76 15.5522C133.5 16.6922 133.87 18.0522 133.87 19.6322C133.87 21.1922 133.5 22.5422 132.76 23.6822C132.02 24.8222 130.97 25.7022 129.61 26.3222C128.25 26.9222 126.63 27.2222 124.75 27.2222H118.36L120.52 25.0322V33.0122H115.66ZM120.52 25.5722L118.36 23.2622H124.48C125.98 23.2622 127.1 22.9422 127.84 22.3022C128.58 21.6622 128.95 20.7722 128.95 19.6322C128.95 18.4722 128.58 17.5722 127.84 16.9322C127.1 16.2922 125.98 15.9722 124.48 15.9722H118.36L120.52 13.6622V25.5722ZM136.981 33.0122V16.8722H141.451V21.4322L140.821 20.1122C141.301 18.9722 142.071 18.1122 143.131 17.5322C144.191 16.9322 145.481 16.6322 147.001 16.6322V20.9522C146.801 20.9322 146.621 20.9222 146.461 20.9222C146.301 20.9022 146.131 20.8922 145.951 20.8922C144.671 20.8922 143.631 21.2622 142.831 22.0022C142.051 22.7222 141.661 23.8522 141.661 25.3922V33.0122H136.981ZM157.346 33.2522C155.626 33.2522 154.096 32.8922 152.756 32.1722C151.436 31.4522 150.386 30.4722 149.606 29.2322C148.846 27.9722 148.466 26.5422 148.466 24.9422C148.466 23.3222 148.846 21.8922 149.606 20.6522C150.386 19.3922 151.436 18.4122 152.756 17.7122C154.096 16.9922 155.626 16.6322 157.346 16.6322C159.046 16.6322 160.566 16.9922 161.906 17.7122C163.246 18.4122 164.296 19.3822 165.056 20.6222C165.816 21.8622 166.196 23.3022 166.196 24.9422C166.196 26.5422 165.816 27.9722 165.056 29.2322C164.296 30.4722 163.246 31.4522 161.906 32.1722C160.566 32.8922 159.046 33.2522 157.346 33.2522ZM157.346 29.4122C158.126 29.4122 158.826 29.2322 159.446 28.8722C160.066 28.5122 160.556 28.0022 160.916 27.3422C161.276 26.6622 161.456 25.8622 161.456 24.9422C161.456 24.0022 161.276 23.2022 160.916 22.5422C160.556 21.8822 160.066 21.3722 159.446 21.0122C158.826 20.6522 158.126 20.4722 157.346 20.4722C156.566 20.4722 155.866 20.6522 155.246 21.0122C154.626 21.3722 154.126 21.8822 153.746 22.5422C153.386 23.2022 153.206 24.0022 153.206 24.9422C153.206 25.8622 153.386 26.6622 153.746 27.3422C154.126 28.0022 154.626 28.5122 155.246 28.8722C155.866 29.2322 156.566 29.4122 157.346 29.4122ZM175.925 33.2522C174.025 33.2522 172.545 32.7722 171.485 31.8122C170.425 30.8322 169.895 29.3822 169.895 27.4622V13.3022H174.575V27.4022C174.575 28.0822 174.755 28.6122 175.115 28.9922C175.475 29.3522 175.965 29.5322 176.585 29.5322C177.325 29.5322 177.955 29.3322 178.475 28.9322L179.735 32.2322C179.255 32.5722 178.675 32.8322 177.995 33.0122C177.335 33.1722 176.645 33.2522 175.925 33.2522ZM167.405 20.4722V16.8722H178.595V20.4722H167.405ZM189.874 33.2522C188.034 33.2522 186.414 32.8922 185.014 32.1722C183.634 31.4522 182.564 30.4722 181.804 29.2322C181.044 27.9722 180.664 26.5422 180.664 24.9422C180.664 23.3222 181.034 21.8922 181.774 20.6522C182.534 19.3922 183.564 18.4122 184.864 17.7122C186.164 16.9922 187.634 16.6322 189.274 16.6322C190.854 16.6322 192.274 16.9722 193.534 17.6522C194.814 18.3122 195.824 19.2722 196.564 20.5322C197.304 21.7722 197.674 23.2622 197.674 25.0022C197.674 25.1822 197.664 25.3922 197.644 25.6322C197.624 25.8522 197.604 26.0622 197.584 26.2622H184.474V23.5322H195.124L193.324 24.3422C193.324 23.5022 193.154 22.7722 192.814 22.1522C192.474 21.5322 192.004 21.0522 191.404 20.7122C190.804 20.3522 190.104 20.1722 189.304 20.1722C188.504 20.1722 187.794 20.3522 187.174 20.7122C186.574 21.0522 186.104 21.5422 185.764 22.1822C185.424 22.8022 185.254 23.5422 185.254 24.4022V25.1222C185.254 26.0022 185.444 26.7822 185.824 27.4622C186.224 28.1222 186.774 28.6322 187.474 28.9922C188.194 29.3322 189.034 29.5022 189.994 29.5022C190.854 29.5022 191.604 29.3722 192.244 29.1122C192.904 28.8522 193.504 28.4622 194.044 27.9422L196.534 30.6422C195.794 31.4822 194.864 32.1322 193.744 32.5922C192.624 33.0322 191.334 33.2522 189.874 33.2522ZM208.589 33.2522C206.849 33.2522 205.299 32.9022 203.939 32.2022C202.579 31.4822 201.509 30.4922 200.729 29.2322C199.969 27.9722 199.589 26.5422 199.589 24.9422C199.589 23.3222 199.969 21.8922 200.729 20.6522C201.509 19.3922 202.579 18.4122 203.939 17.7122C205.299 16.9922 206.849 16.6322 208.589 16.6322C210.289 16.6322 211.769 16.9922 213.029 17.7122C214.289 18.4122 215.219 19.4222 215.819 20.7422L212.189 22.6922C211.769 21.9322 211.239 21.3722 210.599 21.0122C209.979 20.6522 209.299 20.4722 208.559 20.4722C207.759 20.4722 207.039 20.6522 206.399 21.0122C205.759 21.3722 205.249 21.8822 204.869 22.5422C204.509 23.2022 204.329 24.0022 204.329 24.9422C204.329 25.8822 204.509 26.6822 204.869 27.3422C205.249 28.0022 205.759 28.5122 206.399 28.8722C207.039 29.2322 207.759 29.4122 208.559 29.4122C209.299 29.4122 209.979 29.2422 210.599 28.9022C211.239 28.5422 211.769 27.9722 212.189 27.1922L215.819 29.1722C215.219 30.4722 214.289 31.4822 213.029 32.2022C211.769 32.9022 210.289 33.2522 208.589 33.2522ZM225.348 33.2522C223.448 33.2522 221.968 32.7722 220.908 31.8122C219.848 30.8322 219.318 29.3822 219.318 27.4622V13.3022H223.998V27.4022C223.998 28.0822 224.178 28.6122 224.538 28.9922C224.898 29.3522 225.388 29.5322 226.008 29.5322C226.748 29.5322 227.378 29.3322 227.898 28.9322L229.158 32.2322C228.678 32.5722 228.098 32.8322 227.418 33.0122C226.758 33.1722 226.068 33.2522 225.348 33.2522ZM216.828 20.4722V16.8722H228.018V20.4722H216.828Z" fill="#528731"/>
</svg>
